<svg width="32" height="32" viewBox="0 0 32 32" fill="none" xmlns="http://www.w3.org/2000/svg">
<path d="M28.6278 17.0189C28.3735 16.7276 28.2332 16.3531 28.2332 15.9653C28.2332 15.5776 28.3735 15.2031 28.6278 14.9118L30.6587 12.6131C30.8825 12.3619 31.0215 12.0459 31.0557 11.7104C31.0899 11.3748 31.0176 11.037 30.8491 10.7454L27.6759 5.22213C27.5091 4.93083 27.2552 4.69994 26.9504 4.56235C26.6456 4.42476 26.3053 4.38751 25.9782 4.4559L22.9954 5.0625C22.6159 5.1414 22.2207 5.0778 21.8846 4.88371C21.5485 4.68962 21.2946 4.37845 21.1708 4.00893L20.203 1.08767C20.0965 0.770605 19.8937 0.495217 19.6233 0.30043C19.3528 0.105643 19.0283 0.00130706 18.6957 0.00217092H12.3493C12.0033 -0.0159984 11.6609 0.0802729 11.3744 0.276281C11.0879 0.472289 10.8731 0.75726 10.7627 1.08767L9.87416 4.00893C9.75041 4.37845 9.49651 4.68962 9.16037 4.88371C8.82423 5.0778 8.42911 5.1414 8.04957 5.0625L4.98742 4.4559C4.67732 4.41181 4.36118 4.46104 4.07884 4.59739C3.7965 4.73375 3.56059 4.95112 3.40081 5.22213L0.2276 10.7454C0.054914 11.0338 -0.0227312 11.3697 0.005765 11.7051C0.0342612 12.0406 0.16744 12.3584 0.386261 12.6131L2.40125 14.9118C2.65561 15.2031 2.79589 15.5776 2.79589 15.9653C2.79589 16.3531 2.65561 16.7276 2.40125 17.0189L0.386261 19.3176C0.16744 19.5723 0.0342612 19.8901 0.005765 20.2256C-0.0227312 20.561 0.054914 20.8969 0.2276 21.1853L3.40081 26.7086C3.56756 26.9999 3.82145 27.2308 4.12629 27.3683C4.43113 27.5059 4.77136 27.5432 5.09848 27.4748L8.0813 26.8682C8.46084 26.7893 8.85597 26.8529 9.1921 27.047C9.52824 27.2411 9.78214 27.5522 9.9059 27.9218L10.8737 30.843C10.9841 31.1734 11.199 31.4584 11.4855 31.6544C11.772 31.8504 12.1143 31.9467 12.4603 31.9285H18.8068C19.1394 31.9294 19.4639 31.825 19.7343 31.6303C20.0048 31.4355 20.2076 31.1601 20.314 30.843L21.2819 27.9218C21.4056 27.5522 21.6595 27.2411 21.9957 27.047C22.3318 26.8529 22.7269 26.7893 23.1065 26.8682L26.0893 27.4748C26.4164 27.5432 26.7566 27.5059 27.0615 27.3683C27.3663 27.2308 27.6202 26.9999 27.7869 26.7086L30.9602 21.1853C31.1286 20.8937 31.2009 20.5559 31.1667 20.2203C31.1325 19.8848 30.9936 19.5688 30.7698 19.3176L28.6278 17.0189ZM26.2638 19.158L27.5331 20.5947L25.5022 24.1385L23.63 23.7554C22.4873 23.5204 21.2986 23.7157 20.2896 24.3042C19.2805 24.8927 18.5214 25.8335 18.1562 26.948L17.5533 28.7359H13.4916L12.9204 26.9161C12.5553 25.8016 11.7961 24.8608 10.7871 24.2723C9.77806 23.6837 8.58936 23.4884 7.44666 23.7234L5.57446 24.1066L3.51187 20.5787L4.78116 19.142C5.5617 18.264 5.99322 17.1274 5.99322 15.9494C5.99322 14.7714 5.5617 13.6348 4.78116 12.7567L3.51187 11.3201L5.54273 7.80816L7.41493 8.19128C8.55763 8.42629 9.74633 8.231 10.7554 7.64246C11.7644 7.05393 12.5236 6.11313 12.8887 4.99864L13.4916 3.19481H17.5533L18.1562 5.01461C18.5214 6.12909 19.2805 7.06989 20.2896 7.65843C21.2986 8.24696 22.4873 8.44226 23.63 8.20724L25.5022 7.82413L27.5331 11.368L26.2638 12.8046C25.492 13.6806 25.0659 14.8107 25.0659 15.9813C25.0659 17.1519 25.492 18.282 26.2638 19.158ZM15.5225 9.58008C14.2673 9.58008 13.0403 9.95457 11.9966 10.6562C10.9529 11.3578 10.1395 12.3551 9.65915 13.5218C9.1788 14.6886 9.05312 15.9724 9.298 17.2111C9.54288 18.4497 10.1473 19.5874 11.0349 20.4804C11.9224 21.3734 13.0533 21.9815 14.2844 22.2279C15.5154 22.4743 16.7915 22.3479 17.9512 21.8646C19.1108 21.3813 20.102 20.5629 20.7993 19.5128C21.4967 18.4628 21.8689 17.2282 21.8689 15.9653C21.8689 14.2719 21.2003 12.6477 20.0101 11.4503C18.8199 10.2528 17.2057 9.58008 15.5225 9.58008ZM15.5225 19.158C14.8949 19.158 14.2814 18.9707 13.7595 18.6199C13.2377 18.2691 12.831 17.7705 12.5908 17.1871C12.3506 16.6037 12.2878 15.9618 12.4102 15.3425C12.5327 14.7232 12.8349 14.1543 13.2787 13.7078C13.7225 13.2613 14.2879 12.9572 14.9034 12.8341C15.519 12.7109 16.157 12.7741 16.7368 13.0157C17.3166 13.2574 17.8122 13.6666 18.1609 14.1916C18.5096 14.7166 18.6957 15.3339 18.6957 15.9653C18.6957 16.8121 18.3614 17.6241 17.7663 18.2229C17.1712 18.8216 16.3641 19.158 15.5225 19.158Z" fill="#20EEAB"/>
</svg>
