<svg width="33" height="33" viewBox="0 0 33 33" fill="none" xmlns="http://www.w3.org/2000/svg">
<path d="M16.25 0C11.9572 0.054745 7.85573 1.78437 4.82005 4.82005C1.78437 7.85573 0.054745 11.9573 0 16.25C0.0200669 18.7507 0.617046 21.2131 1.74446 23.4454C2.87187 25.6777 4.49928 27.6196 6.5 29.12V29.25H6.6625C9.41392 31.3584 12.7836 32.5011 16.25 32.5011C19.7164 32.5011 23.0861 31.3584 25.8375 29.25H26V29.12C28.0007 27.6196 29.6281 25.6777 30.7555 23.4454C31.883 21.2131 32.4799 18.7507 32.5 16.25C32.4453 11.9573 30.7156 7.85573 27.68 4.82005C24.6443 1.78437 20.5428 0.054745 16.25 0ZM9.86375 27.5113C10.101 26.4249 10.7025 25.4522 11.5685 24.7547C12.4345 24.0571 13.513 23.6766 14.625 23.6763H17.875C18.987 23.6766 20.0655 24.0571 20.9315 24.7547C21.7975 25.4522 22.399 26.4249 22.6362 27.5113C20.7007 28.6501 18.4958 29.2506 16.25 29.2506C14.0042 29.2506 11.7993 28.6501 9.86375 27.5113ZM25.3663 25.415C24.7481 23.9378 23.7073 22.6762 22.3745 21.7886C21.0417 20.901 19.4763 20.4271 17.875 20.4263H14.625C13.0237 20.4271 11.4583 20.901 10.1255 21.7886C8.79268 22.6762 7.75186 23.9378 7.13375 25.415C5.91608 24.2174 4.94634 22.7915 4.27995 21.219C3.61355 19.6464 3.26357 17.9579 3.25 16.25C3.29215 12.8153 4.67532 9.53312 7.10422 7.10422C9.53311 4.67532 12.8153 3.29215 16.25 3.25C19.6847 3.29215 22.9669 4.67532 25.3958 7.10422C27.8247 9.53312 29.2079 12.8153 29.25 16.25C29.2364 17.9579 28.8864 19.6464 28.2201 21.219C27.5537 22.7915 26.5839 24.2174 25.3663 25.415Z" fill="#20EEAB"/>
<path d="M16.2517 6.49977C15.3927 6.47976 14.5385 6.63421 13.7408 6.95378C12.9431 7.27335 12.2186 7.7514 11.611 8.35902C11.0034 8.96663 10.5253 9.69118 10.2057 10.4888C9.88616 11.2865 9.73171 12.1407 9.75172 12.9998C9.73171 13.8588 9.88616 14.713 10.2057 15.5107C10.5253 16.3084 11.0034 17.0329 11.611 17.6405C12.2186 18.2481 12.9431 18.7262 13.7408 19.0458C14.5385 19.3653 15.3927 19.5198 16.2517 19.4998C17.1108 19.5198 17.965 19.3653 18.7626 19.0458C19.5603 18.7262 20.2849 18.2481 20.8925 17.6405C21.5001 17.0329 21.9781 16.3084 22.2977 15.5107C22.6173 14.713 22.7717 13.8588 22.7517 12.9998C22.7717 12.1407 22.6173 11.2865 22.2977 10.4888C21.9781 9.69118 21.5001 8.96663 20.8925 8.35902C20.2849 7.7514 19.5603 7.27335 18.7626 6.95378C17.965 6.63421 17.1108 6.47976 16.2517 6.49977ZM16.2517 16.2498C15.8194 16.2707 15.3875 16.2009 14.9837 16.045C14.5799 15.889 14.2132 15.6504 13.9072 15.3443C13.6011 15.0383 13.3624 14.6716 13.2065 14.2678C13.0506 13.864 12.9808 13.4321 13.0017 12.9998C12.9808 12.5674 13.0506 12.1355 13.2065 11.7317C13.3624 11.328 13.6011 10.9613 13.9072 10.6552C14.2132 10.3492 14.5799 10.1105 14.9837 9.95456C15.3875 9.79863 15.8194 9.72887 16.2517 9.74977C16.6841 9.72887 17.116 9.79863 17.5197 9.95456C17.9235 10.1105 18.2902 10.3492 18.5963 10.6552C18.9023 10.9613 19.141 11.328 19.2969 11.7317C19.4529 12.1355 19.5226 12.5674 19.5017 12.9998C19.5226 13.4321 19.4529 13.864 19.2969 14.2678C19.141 14.6716 18.9023 15.0383 18.5963 15.3443C18.2902 15.6504 17.9235 15.889 17.5197 16.045C17.116 16.2009 16.6841 16.2707 16.2517 16.2498Z" fill="#20EEAB"/>
</svg>
