<svg width="82" height="82" viewBox="0 0 82 82" fill="none" xmlns="http://www.w3.org/2000/svg">
<path d="M28.1667 25H54C55.3703 25 56.6845 25.5443 57.6534 26.5133C58.6223 27.4822 59.1667 28.7964 59.1667 30.1667V43.0833H23V30.1667C23 28.7964 23.5443 27.4822 24.5133 26.5133C25.4822 25.5443 26.7964 25 28.1667 25ZM59.1667 68.9167C59.1667 70.287 58.6223 71.6011 57.6534 72.57C56.6845 73.539 55.3703 74.0833 54 74.0833V76.6667H48.8333V74.0833H33.3333V76.6667H28.1667V74.0833C26.7964 74.0833 25.4822 73.539 24.5133 72.57C23.5443 71.6011 23 70.287 23 68.9167V45.6667H59.1667V68.9167ZM30.75 32.75V37.9167H35.9167V32.75H30.75ZM30.75 50.8333V58.5833H35.9167V50.8333H30.75Z" fill="#F9F9F9"/>
<path d="M2 2H80V67C80 74.1797 74.1797 80 67 80H15C7.8203 80 2 74.1797 2 67V2Z" stroke="#F9F9F9" stroke-width="4"/>
<path d="M21.0202 10.98V18H19.3102V13.79L17.7402 18H16.3602L14.7802 13.78V18H13.0702V10.98H15.0902L17.0602 15.84L19.0102 10.98H21.0202ZM25.5699 18.07C24.9099 18.07 24.3032 17.9167 23.7499 17.61C23.2032 17.3033 22.7665 16.8767 22.4399 16.33C22.1199 15.7767 21.9599 15.1567 21.9599 14.47C21.9599 13.7833 22.1199 13.1667 22.4399 12.62C22.7665 12.0733 23.2032 11.6467 23.7499 11.34C24.3032 11.0333 24.9099 10.88 25.5699 10.88C26.2299 10.88 26.8332 11.0333 27.3799 11.34C27.9332 11.6467 28.3665 12.0733 28.6799 12.62C28.9999 13.1667 29.1599 13.7833 29.1599 14.47C29.1599 15.1567 28.9999 15.7767 28.6799 16.33C28.3599 16.8767 27.9265 17.3033 27.3799 17.61C26.8332 17.9167 26.2299 18.07 25.5699 18.07ZM25.5699 16.51C26.1299 16.51 26.5765 16.3233 26.9099 15.95C27.2499 15.5767 27.4199 15.0833 27.4199 14.47C27.4199 13.85 27.2499 13.3567 26.9099 12.99C26.5765 12.6167 26.1299 12.43 25.5699 12.43C25.0032 12.43 24.5499 12.6133 24.2099 12.98C23.8765 13.3467 23.7099 13.8433 23.7099 14.47C23.7099 15.09 23.8765 15.5867 24.2099 15.96C24.5499 16.3267 25.0032 16.51 25.5699 16.51ZM36.3912 18H34.6812L31.8212 13.67V18H30.1112V10.98H31.8212L34.6812 15.33V10.98H36.3912V18ZM44.3199 10.98V12.35H41.4599V13.83H43.5999V15.16H41.4599V18H39.7499V10.98H44.3199ZM48.7986 18L47.3386 15.35H46.9286V18H45.2186V10.98H48.0886C48.642 10.98 49.112 11.0767 49.4986 11.27C49.892 11.4633 50.1853 11.73 50.3786 12.07C50.572 12.4033 50.6686 12.7767 50.6686 13.19C50.6686 13.6567 50.5353 14.0733 50.2686 14.44C50.0086 14.8067 49.622 15.0667 49.1086 15.22L50.7286 18H48.7986ZM46.9286 14.14H47.9886C48.302 14.14 48.5353 14.0633 48.6886 13.91C48.8486 13.7567 48.9286 13.54 48.9286 13.26C48.9286 12.9933 48.8486 12.7833 48.6886 12.63C48.5353 12.4767 48.302 12.4 47.9886 12.4H46.9286V14.14ZM53.4521 10.98V18H51.7421V10.98H53.4521ZM59.3513 13.2C59.2246 12.9667 59.0413 12.79 58.8013 12.67C58.568 12.5433 58.2913 12.48 57.9713 12.48C57.418 12.48 56.9746 12.6633 56.6413 13.03C56.308 13.39 56.1413 13.8733 56.1413 14.48C56.1413 15.1267 56.3146 15.6333 56.6613 16C57.0146 16.36 57.498 16.54 58.1113 16.54C58.5313 16.54 58.8846 16.4333 59.1713 16.22C59.4646 16.0067 59.678 15.7 59.8113 15.3H57.6413V14.04H61.3613V15.63C61.2346 16.0567 61.018 16.4533 60.7113 16.82C60.4113 17.1867 60.028 17.4833 59.5613 17.71C59.0946 17.9367 58.568 18.05 57.9813 18.05C57.288 18.05 56.668 17.9 56.1213 17.6C55.5813 17.2933 55.158 16.87 54.8513 16.33C54.5513 15.79 54.4013 15.1733 54.4013 14.48C54.4013 13.7867 54.5513 13.17 54.8513 12.63C55.158 12.0833 55.5813 11.66 56.1213 11.36C56.6613 11.0533 57.278 10.9 57.9713 10.9C58.8113 10.9 59.518 11.1033 60.0913 11.51C60.6713 11.9167 61.0546 12.48 61.2413 13.2H59.3513ZM65.6285 18.07C64.9685 18.07 64.3618 17.9167 63.8085 17.61C63.2618 17.3033 62.8251 16.8767 62.4985 16.33C62.1785 15.7767 62.0185 15.1567 62.0185 14.47C62.0185 13.7833 62.1785 13.1667 62.4985 12.62C62.8251 12.0733 63.2618 11.6467 63.8085 11.34C64.3618 11.0333 64.9685 10.88 65.6285 10.88C66.2885 10.88 66.8918 11.0333 67.4385 11.34C67.9918 11.6467 68.4251 12.0733 68.7385 12.62C69.0585 13.1667 69.2185 13.7833 69.2185 14.47C69.2185 15.1567 69.0585 15.7767 68.7385 16.33C68.4185 16.8767 67.9851 17.3033 67.4385 17.61C66.8918 17.9167 66.2885 18.07 65.6285 18.07ZM65.6285 16.51C66.1885 16.51 66.6351 16.3233 66.9685 15.95C67.3085 15.5767 67.4785 15.0833 67.4785 14.47C67.4785 13.85 67.3085 13.3567 66.9685 12.99C66.6351 12.6167 66.1885 12.43 65.6285 12.43C65.0618 12.43 64.6085 12.6133 64.2685 12.98C63.9351 13.3467 63.7685 13.8433 63.7685 14.47C63.7685 15.09 63.9351 15.5867 64.2685 15.96C64.6085 16.3267 65.0618 16.51 65.6285 16.51Z" fill="#F9F9F9"/>
<rect x="4" width="74" height="4" fill="#22EDAD"/>
</svg>
