<svg width="82" height="82" viewBox="0 0 82 82" fill="none" xmlns="http://www.w3.org/2000/svg">
<rect x="2" y="2" width="78" height="78" rx="13" stroke="#F9F9F9" stroke-width="4"/>
<path d="M62.1788 55.6027L66.9389 34.4777C67.2826 32.9524 66.1331 31.5 64.5823 31.5H25.0314L24.1084 26.949C23.8784 25.8146 22.8888 25 21.7408 25H11.4167C10.082 25 9 26.0913 9 27.4375V29.0625C9 30.4087 10.082 31.5 11.4167 31.5H18.4535L25.5271 66.3801C23.8348 67.3617 22.6944 69.2022 22.6944 71.3125C22.6944 74.4536 25.2191 77 28.3333 77C31.4476 77 33.9722 74.4536 33.9722 71.3125C33.9722 69.7206 33.323 68.2824 32.2781 67.25H53.3884C52.3436 68.2824 51.6945 69.7206 51.6945 71.3125C51.6945 74.4536 54.2191 77 57.3333 77C60.4476 77 62.9722 74.4536 62.9722 71.3125C62.9722 69.0607 61.6745 67.1147 59.7924 66.1932L60.3479 63.7277C60.6916 62.2024 59.5422 60.75 57.9914 60.75H30.9632L30.3041 57.5H59.8222C60.9506 57.5 61.9287 56.7125 62.1788 55.6027Z" fill="#F9F9F9"/>
<path d="M21.57 10.98V18H19.86V13.79L18.29 18H16.91L15.33 13.78V18H13.62V10.98H15.64L17.61 15.84L19.56 10.98H21.57ZM24.5097 12.35V13.77H26.7997V15.09H24.5097V16.63H27.0997V18H22.7997V10.98H27.0997V12.35H24.5097ZM30.7498 18.07C30.2365 18.07 29.7765 17.9867 29.3698 17.82C28.9632 17.6533 28.6365 17.4067 28.3898 17.08C28.1498 16.7533 28.0232 16.36 28.0098 15.9H29.8298C29.8565 16.16 29.9465 16.36 30.0998 16.5C30.2532 16.6333 30.4532 16.7 30.6998 16.7C30.9532 16.7 31.1532 16.6433 31.2998 16.53C31.4465 16.41 31.5198 16.2467 31.5198 16.04C31.5198 15.8667 31.4598 15.7233 31.3398 15.61C31.2265 15.4967 31.0832 15.4033 30.9098 15.33C30.7432 15.2567 30.5032 15.1733 30.1898 15.08C29.7365 14.94 29.3665 14.8 29.0798 14.66C28.7932 14.52 28.5465 14.3133 28.3398 14.04C28.1332 13.7667 28.0298 13.41 28.0298 12.97C28.0298 12.3167 28.2665 11.8067 28.7398 11.44C29.2132 11.0667 29.8298 10.88 30.5898 10.88C31.3632 10.88 31.9865 11.0667 32.4598 11.44C32.9332 11.8067 33.1865 12.32 33.2198 12.98H31.3698C31.3565 12.7533 31.2732 12.5767 31.1198 12.45C30.9665 12.3167 30.7698 12.25 30.5298 12.25C30.3232 12.25 30.1565 12.3067 30.0298 12.42C29.9032 12.5267 29.8398 12.6833 29.8398 12.89C29.8398 13.1167 29.9465 13.2933 30.1598 13.42C30.3732 13.5467 30.7065 13.6833 31.1598 13.83C31.6132 13.9833 31.9798 14.13 32.2598 14.27C32.5465 14.41 32.7932 14.6133 32.9998 14.88C33.2065 15.1467 33.3098 15.49 33.3098 15.91C33.3098 16.31 33.2065 16.6733 32.9998 17C32.7998 17.3267 32.5065 17.5867 32.1198 17.78C31.7332 17.9733 31.2765 18.07 30.7498 18.07ZM38.1913 16.68H40.4313V18H36.4813V10.98H38.1913V16.68ZM42.957 10.98V18H41.247V10.98H42.957ZM46.7362 18.07C46.2228 18.07 45.7628 17.9867 45.3562 17.82C44.9495 17.6533 44.6228 17.4067 44.3762 17.08C44.1362 16.7533 44.0095 16.36 43.9962 15.9H45.8162C45.8428 16.16 45.9328 16.36 46.0862 16.5C46.2395 16.6333 46.4395 16.7 46.6862 16.7C46.9395 16.7 47.1395 16.6433 47.2862 16.53C47.4328 16.41 47.5062 16.2467 47.5062 16.04C47.5062 15.8667 47.4462 15.7233 47.3262 15.61C47.2128 15.4967 47.0695 15.4033 46.8962 15.33C46.7295 15.2567 46.4895 15.1733 46.1762 15.08C45.7228 14.94 45.3528 14.8 45.0662 14.66C44.7795 14.52 44.5328 14.3133 44.3262 14.04C44.1195 13.7667 44.0162 13.41 44.0162 12.97C44.0162 12.3167 44.2528 11.8067 44.7262 11.44C45.1995 11.0667 45.8162 10.88 46.5762 10.88C47.3495 10.88 47.9728 11.0667 48.4462 11.44C48.9195 11.8067 49.1728 12.32 49.2062 12.98H47.3562C47.3428 12.7533 47.2595 12.5767 47.1062 12.45C46.9528 12.3167 46.7562 12.25 46.5162 12.25C46.3095 12.25 46.1428 12.3067 46.0162 12.42C45.8895 12.5267 45.8262 12.6833 45.8262 12.89C45.8262 13.1167 45.9328 13.2933 46.1462 13.42C46.3595 13.5467 46.6928 13.6833 47.1462 13.83C47.5995 13.9833 47.9662 14.13 48.2462 14.27C48.5328 14.41 48.7795 14.6133 48.9862 14.88C49.1928 15.1467 49.2962 15.49 49.2962 15.91C49.2962 16.31 49.1928 16.6733 48.9862 17C48.7862 17.3267 48.4928 17.5867 48.1062 17.78C47.7195 17.9733 47.2628 18.07 46.7362 18.07ZM55.3985 10.98V12.35H53.5385V18H51.8285V12.35H49.9685V10.98H55.3985ZM57.9667 12.35V13.77H60.2567V15.09H57.9667V16.63H60.5567V18H56.2567V10.98H60.5567V12.35H57.9667ZM64.2069 18.07C63.6935 18.07 63.2335 17.9867 62.8269 17.82C62.4202 17.6533 62.0935 17.4067 61.8469 17.08C61.6069 16.7533 61.4802 16.36 61.4669 15.9H63.2869C63.3135 16.16 63.4035 16.36 63.5569 16.5C63.7102 16.6333 63.9102 16.7 64.1569 16.7C64.4102 16.7 64.6102 16.6433 64.7569 16.53C64.9035 16.41 64.9769 16.2467 64.9769 16.04C64.9769 15.8667 64.9169 15.7233 64.7969 15.61C64.6835 15.4967 64.5402 15.4033 64.3669 15.33C64.2002 15.2567 63.9602 15.1733 63.6469 15.08C63.1935 14.94 62.8235 14.8 62.5369 14.66C62.2502 14.52 62.0035 14.3133 61.7969 14.04C61.5902 13.7667 61.4869 13.41 61.4869 12.97C61.4869 12.3167 61.7235 11.8067 62.1969 11.44C62.6702 11.0667 63.2869 10.88 64.0469 10.88C64.8202 10.88 65.4435 11.0667 65.9169 11.44C66.3902 11.8067 66.6435 12.32 66.6769 12.98H64.8269C64.8135 12.7533 64.7302 12.5767 64.5769 12.45C64.4235 12.3167 64.2269 12.25 63.9869 12.25C63.7802 12.25 63.6135 12.3067 63.4869 12.42C63.3602 12.5267 63.2969 12.6833 63.2969 12.89C63.2969 13.1167 63.4035 13.2933 63.6169 13.42C63.8302 13.5467 64.1635 13.6833 64.6169 13.83C65.0702 13.9833 65.4369 14.13 65.7169 14.27C66.0035 14.41 66.2502 14.6133 66.4569 14.88C66.6635 15.1467 66.7669 15.49 66.7669 15.91C66.7669 16.31 66.6635 16.6733 66.4569 17C66.2569 17.3267 65.9635 17.5867 65.5769 17.78C65.1902 17.9733 64.7335 18.07 64.2069 18.07Z" fill="#F9F9F9"/>
</svg>
