<svg width="82" height="82" viewBox="0 0 82 82" fill="none" xmlns="http://www.w3.org/2000/svg">
<rect x="2" y="2" width="78" height="78" rx="13" stroke="#F9F9F9" stroke-width="4"/>
<path d="M39.0879 57.4988V76.9913H31.3018V57.4988H39.0879V57.4988ZM56.6618 53.5992H47.5603C47.0432 53.5992 46.5473 53.8047 46.1816 54.1703C45.816 54.536 45.6105 55.0319 45.6105 55.549V64.6531C45.6105 65.7294 46.4814 66.6029 47.5603 66.6029H56.6618C57.179 66.6029 57.6749 66.3975 58.0405 66.0318C58.4062 65.6662 58.6116 65.1703 58.6116 64.6531V55.549C58.6116 55.0319 58.4062 54.536 58.0405 54.1703C57.6749 53.8047 57.179 53.5992 56.6618 53.5992V53.5992ZM54.7121 57.4988V62.7034H49.5075V57.4988H54.7095H54.7121ZM33.0306 38.0037H20.9057V41.0323C20.9057 44.1 23.1882 46.6399 26.1492 47.0402L26.5548 47.0818L26.9707 47.0948C30.1814 47.0948 32.8071 44.6017 33.0202 41.4457L33.0358 41.0297V38.0063L33.0306 38.0037ZM49.0577 38.0037H36.9328V41.0323C36.9328 44.1 39.2153 46.6399 42.1764 47.0402L42.5819 47.0818L42.9979 47.0948C46.2085 47.0948 48.8342 44.6017 49.0473 41.4457L49.0629 41.0297V38.0063L49.0577 38.0037ZM65.0901 38.0037H52.9625L52.9651 41.0323C52.9651 44.1 55.2476 46.6399 58.2061 47.0402L58.6142 47.0818L59.0302 47.0948C62.2382 47.0948 64.8665 44.6017 65.0797 41.4457L65.0927 41.0297V38.0063L65.0901 38.0037ZM35.36 28.8995H28.2498L23.4248 34.1041H33.7637L35.36 28.8995ZM46.5594 28.8995H39.4415L37.8401 34.1041H48.1608L46.5594 28.8995ZM57.7485 28.8995H50.6436L52.2424 34.1041H62.5788L57.7485 28.8995V28.8995ZM17.5286 34.7281L25.9725 25.6239C26.2777 25.2945 26.6872 25.0806 27.1319 25.0182L27.4023 25H58.5986C59.0486 24.9996 59.4849 25.1548 59.8335 25.4393L60.0285 25.6213L68.5373 34.7982L68.6152 34.897C68.8804 35.2506 69 35.651 69 36.0409L68.9948 41.0323C68.9948 43.6164 68.0121 45.9717 66.3951 47.7395V75.0441C66.3951 75.5153 66.2245 75.9705 65.9148 76.3256C65.6051 76.6807 65.1773 76.9116 64.7105 76.9757L64.4453 76.9939L42.9901 76.9913V55.549C42.9901 55.0319 42.7846 54.536 42.419 54.1703C42.0533 53.8047 41.5574 53.5992 41.0403 53.5992H29.3521C28.8349 53.5992 28.339 53.8047 27.9734 54.1703C27.6077 54.536 27.4023 55.0319 27.4023 55.549V76.9913L21.5582 76.9939C21.0866 76.9945 20.6307 76.8241 20.2751 76.5144C19.9195 76.2047 19.6881 75.7765 19.624 75.3093L19.6084 75.0441L19.6032 47.7421C18.047 46.0396 17.1324 43.8482 17.0165 41.5445L17.0035 41.0323V36.1527C16.9809 35.7823 17.0677 35.4135 17.2531 35.092L17.3831 34.8944L17.526 34.7255L17.5286 34.7281Z" fill="#F9F9F9"/>
<path d="M23.57 11.98V19H21.86V14.79L20.29 19H18.91L17.33 14.78V19H15.62V11.98H17.64L19.61 16.84L21.56 11.98H23.57ZM29.1697 17.76H26.5497L26.1297 19H24.3397L26.8797 11.98H28.8597L31.3997 19H29.5897L29.1697 17.76ZM28.7297 16.44L27.8597 13.87L26.9997 16.44H28.7297ZM36.8327 14.2C36.7061 13.9667 36.5227 13.79 36.2827 13.67C36.0494 13.5433 35.7727 13.48 35.4527 13.48C34.8994 13.48 34.4561 13.6633 34.1227 14.03C33.7894 14.39 33.6227 14.8733 33.6227 15.48C33.6227 16.1267 33.7961 16.6333 34.1427 17C34.4961 17.36 34.9794 17.54 35.5927 17.54C36.0127 17.54 36.3661 17.4333 36.6527 17.22C36.9461 17.0067 37.1594 16.7 37.2927 16.3H35.1227V15.04H38.8427V16.63C38.7161 17.0567 38.4994 17.4533 38.1927 17.82C37.8927 18.1867 37.5094 18.4833 37.0427 18.71C36.5761 18.9367 36.0494 19.05 35.4627 19.05C34.7694 19.05 34.1494 18.9 33.6027 18.6C33.0627 18.2933 32.6394 17.87 32.3327 17.33C32.0327 16.79 31.8827 16.1733 31.8827 15.48C31.8827 14.7867 32.0327 14.17 32.3327 13.63C32.6394 13.0833 33.0627 12.66 33.6027 12.36C34.1427 12.0533 34.7594 11.9 35.4527 11.9C36.2927 11.9 36.9994 12.1033 37.5727 12.51C38.1527 12.9167 38.5361 13.48 38.7227 14.2H36.8327ZM44.1599 17.76H41.5399L41.1199 19H39.3299L41.8699 11.98H43.8499L46.3899 19H44.5799L44.1599 17.76ZM43.7199 16.44L42.8499 13.87L41.9899 16.44H43.7199ZM49.703 19.07C49.1896 19.07 48.7296 18.9867 48.323 18.82C47.9163 18.6533 47.5896 18.4067 47.343 18.08C47.103 17.7533 46.9763 17.36 46.963 16.9H48.783C48.8096 17.16 48.8996 17.36 49.053 17.5C49.2063 17.6333 49.4063 17.7 49.653 17.7C49.9063 17.7 50.1063 17.6433 50.253 17.53C50.3996 17.41 50.473 17.2467 50.473 17.04C50.473 16.8667 50.413 16.7233 50.293 16.61C50.1796 16.4967 50.0363 16.4033 49.863 16.33C49.6963 16.2567 49.4563 16.1733 49.143 16.08C48.6896 15.94 48.3196 15.8 48.033 15.66C47.7463 15.52 47.4996 15.3133 47.293 15.04C47.0863 14.7667 46.983 14.41 46.983 13.97C46.983 13.3167 47.2196 12.8067 47.693 12.44C48.1663 12.0667 48.783 11.88 49.543 11.88C50.3163 11.88 50.9396 12.0667 51.413 12.44C51.8863 12.8067 52.1396 13.32 52.173 13.98H50.323C50.3096 13.7533 50.2263 13.5767 50.073 13.45C49.9196 13.3167 49.723 13.25 49.483 13.25C49.2763 13.25 49.1096 13.3067 48.983 13.42C48.8563 13.5267 48.793 13.6833 48.793 13.89C48.793 14.1167 48.8996 14.2933 49.113 14.42C49.3263 14.5467 49.6596 14.6833 50.113 14.83C50.5663 14.9833 50.933 15.13 51.213 15.27C51.4996 15.41 51.7463 15.6133 51.953 15.88C52.1596 16.1467 52.263 16.49 52.263 16.91C52.263 17.31 52.1596 17.6733 51.953 18C51.753 18.3267 51.4596 18.5867 51.073 18.78C50.6863 18.9733 50.2296 19.07 49.703 19.07ZM55.0253 11.98V19H53.3153V11.98H55.0253ZM62.5445 19H60.8345L57.9745 14.67V19H56.2645V11.98H57.9745L60.8345 16.33V11.98H62.5445V19ZM66.3241 19.07C65.8107 19.07 65.3507 18.9867 64.9441 18.82C64.5374 18.6533 64.2107 18.4067 63.9641 18.08C63.7241 17.7533 63.5974 17.36 63.5841 16.9H65.4041C65.4307 17.16 65.5207 17.36 65.6741 17.5C65.8274 17.6333 66.0274 17.7 66.2741 17.7C66.5274 17.7 66.7274 17.6433 66.8741 17.53C67.0207 17.41 67.0941 17.2467 67.0941 17.04C67.0941 16.8667 67.0341 16.7233 66.9141 16.61C66.8007 16.4967 66.6574 16.4033 66.4841 16.33C66.3174 16.2567 66.0774 16.1733 65.7641 16.08C65.3107 15.94 64.9407 15.8 64.6541 15.66C64.3674 15.52 64.1207 15.3133 63.9141 15.04C63.7074 14.7667 63.6041 14.41 63.6041 13.97C63.6041 13.3167 63.8407 12.8067 64.3141 12.44C64.7874 12.0667 65.4041 11.88 66.1641 11.88C66.9374 11.88 67.5607 12.0667 68.0341 12.44C68.5074 12.8067 68.7607 13.32 68.7941 13.98H66.9441C66.9307 13.7533 66.8474 13.5767 66.6941 13.45C66.5407 13.3167 66.3441 13.25 66.1041 13.25C65.8974 13.25 65.7307 13.3067 65.6041 13.42C65.4774 13.5267 65.4141 13.6833 65.4141 13.89C65.4141 14.1167 65.5207 14.2933 65.7341 14.42C65.9474 14.5467 66.2807 14.6833 66.7341 14.83C67.1874 14.9833 67.5541 15.13 67.8341 15.27C68.1207 15.41 68.3674 15.6133 68.5741 15.88C68.7807 16.1467 68.8841 16.49 68.8841 16.91C68.8841 17.31 68.7807 17.6733 68.5741 18C68.3741 18.3267 68.0807 18.5867 67.6941 18.78C67.3074 18.9733 66.8507 19.07 66.3241 19.07Z" fill="#F9F9F9"/>
</svg>
