<svg width="38" height="52" viewBox="0 0 38 52" fill="none" xmlns="http://www.w3.org/2000/svg">
<path d="M6.08464 0.166504H31.918C33.2883 0.166504 34.6024 0.710847 35.5714 1.67979C36.5403 2.64872 37.0846 3.96289 37.0846 5.33317V18.2498H0.917969V5.33317C0.917969 3.96289 1.46231 2.64872 2.43125 1.67979C3.40019 0.710847 4.71435 0.166504 6.08464 0.166504ZM37.0846 44.0832C37.0846 45.4535 36.5403 46.7676 35.5714 47.7366C34.6024 48.7055 33.2883 49.2498 31.918 49.2498V51.8332H26.7513V49.2498H11.2513V51.8332H6.08464V49.2498C4.71435 49.2498 3.40019 48.7055 2.43125 47.7366C1.46231 46.7676 0.917969 45.4535 0.917969 44.0832V20.8332H37.0846V44.0832ZM8.66797 7.9165V13.0832H13.8346V7.9165H8.66797ZM8.66797 25.9998V33.7498H13.8346V25.9998H8.66797Z" fill="#F9F9F9"/>
</svg>
