<svg width="82" height="82" viewBox="0 0 82 82" fill="none" xmlns="http://www.w3.org/2000/svg">
<path d="M2 2H80V67C80 74.1797 74.1797 80 67 80H15C7.8203 80 2 74.1797 2 67V2Z" stroke="#F9F9F9" stroke-width="4"/>
<path d="M39.0879 57.4988V76.9913H31.3018V57.4988H39.0879V57.4988ZM56.6618 53.5992H47.5603C47.0432 53.5992 46.5473 53.8047 46.1816 54.1703C45.816 54.536 45.6105 55.0319 45.6105 55.549V64.6531C45.6105 65.7294 46.4814 66.6029 47.5603 66.6029H56.6618C57.179 66.6029 57.6749 66.3975 58.0405 66.0318C58.4062 65.6662 58.6116 65.1703 58.6116 64.6531V55.549C58.6116 55.0319 58.4062 54.536 58.0405 54.1703C57.6749 53.8047 57.179 53.5992 56.6618 53.5992V53.5992ZM54.7121 57.4988V62.7034H49.5075V57.4988H54.7095H54.7121ZM33.0306 38.0037H20.9057V41.0323C20.9057 44.1 23.1882 46.6399 26.1492 47.0402L26.5548 47.0818L26.9707 47.0948C30.1814 47.0948 32.8071 44.6017 33.0202 41.4457L33.0358 41.0297V38.0063L33.0306 38.0037ZM49.0577 38.0037H36.9328V41.0323C36.9328 44.1 39.2153 46.6399 42.1764 47.0402L42.5819 47.0818L42.9979 47.0948C46.2085 47.0948 48.8342 44.6017 49.0473 41.4457L49.0629 41.0297V38.0063L49.0577 38.0037ZM65.0901 38.0037H52.9625L52.9651 41.0323C52.9651 44.1 55.2476 46.6399 58.2061 47.0402L58.6142 47.0818L59.0302 47.0948C62.2382 47.0948 64.8665 44.6017 65.0797 41.4457L65.0927 41.0297V38.0063L65.0901 38.0037ZM35.36 28.8995H28.2498L23.4248 34.1041H33.7637L35.36 28.8995ZM46.5594 28.8995H39.4415L37.8401 34.1041H48.1608L46.5594 28.8995ZM57.7485 28.8995H50.6436L52.2424 34.1041H62.5788L57.7485 28.8995V28.8995ZM17.5286 34.7281L25.9725 25.6239C26.2777 25.2945 26.6872 25.0806 27.1319 25.0182L27.4023 25H58.5986C59.0486 24.9996 59.4849 25.1548 59.8335 25.4393L60.0285 25.6213L68.5373 34.7982L68.6152 34.897C68.8804 35.2506 69 35.651 69 36.0409L68.9948 41.0323C68.9948 43.6164 68.0121 45.9717 66.3951 47.7395V75.0441C66.3951 75.5153 66.2245 75.9705 65.9148 76.3256C65.6051 76.6807 65.1773 76.9116 64.7105 76.9757L64.4453 76.9939L42.9901 76.9913V55.549C42.9901 55.0319 42.7846 54.536 42.419 54.1703C42.0533 53.8047 41.5574 53.5992 41.0403 53.5992H29.3521C28.8349 53.5992 28.339 53.8047 27.9734 54.1703C27.6077 54.536 27.4023 55.0319 27.4023 55.549V76.9913L21.5582 76.9939C21.0866 76.9945 20.6307 76.8241 20.2751 76.5144C19.9195 76.2047 19.6881 75.7765 19.624 75.3093L19.6084 75.0441L19.6032 47.7421C18.047 46.0396 17.1324 43.8482 17.0165 41.5445L17.0035 41.0323V36.1527C16.9809 35.7823 17.0677 35.4135 17.2531 35.092L17.3831 34.8944L17.526 34.7255L17.5286 34.7281Z" fill="#F9F9F9"/>
<path d="M23.57 12.98V20H21.86V15.79L20.29 20H18.91L17.33 15.78V20H15.62V12.98H17.64L19.61 17.84L21.56 12.98H23.57ZM29.1697 18.76H26.5497L26.1297 20H24.3397L26.8797 12.98H28.8597L31.3997 20H29.5897L29.1697 18.76ZM28.7297 17.44L27.8597 14.87L26.9997 17.44H28.7297ZM36.8327 15.2C36.7061 14.9667 36.5227 14.79 36.2827 14.67C36.0494 14.5433 35.7727 14.48 35.4527 14.48C34.8994 14.48 34.4561 14.6633 34.1227 15.03C33.7894 15.39 33.6227 15.8733 33.6227 16.48C33.6227 17.1267 33.7961 17.6333 34.1427 18C34.4961 18.36 34.9794 18.54 35.5927 18.54C36.0127 18.54 36.3661 18.4333 36.6527 18.22C36.9461 18.0067 37.1594 17.7 37.2927 17.3H35.1227V16.04H38.8427V17.63C38.7161 18.0567 38.4994 18.4533 38.1927 18.82C37.8927 19.1867 37.5094 19.4833 37.0427 19.71C36.5761 19.9367 36.0494 20.05 35.4627 20.05C34.7694 20.05 34.1494 19.9 33.6027 19.6C33.0627 19.2933 32.6394 18.87 32.3327 18.33C32.0327 17.79 31.8827 17.1733 31.8827 16.48C31.8827 15.7867 32.0327 15.17 32.3327 14.63C32.6394 14.0833 33.0627 13.66 33.6027 13.36C34.1427 13.0533 34.7594 12.9 35.4527 12.9C36.2927 12.9 36.9994 13.1033 37.5727 13.51C38.1527 13.9167 38.5361 14.48 38.7227 15.2H36.8327ZM44.1599 18.76H41.5399L41.1199 20H39.3299L41.8699 12.98H43.8499L46.3899 20H44.5799L44.1599 18.76ZM43.7199 17.44L42.8499 14.87L41.9899 17.44H43.7199ZM49.703 20.07C49.1896 20.07 48.7296 19.9867 48.323 19.82C47.9163 19.6533 47.5896 19.4067 47.343 19.08C47.103 18.7533 46.9763 18.36 46.963 17.9H48.783C48.8096 18.16 48.8996 18.36 49.053 18.5C49.2063 18.6333 49.4063 18.7 49.653 18.7C49.9063 18.7 50.1063 18.6433 50.253 18.53C50.3996 18.41 50.473 18.2467 50.473 18.04C50.473 17.8667 50.413 17.7233 50.293 17.61C50.1796 17.4967 50.0363 17.4033 49.863 17.33C49.6963 17.2567 49.4563 17.1733 49.143 17.08C48.6896 16.94 48.3196 16.8 48.033 16.66C47.7463 16.52 47.4996 16.3133 47.293 16.04C47.0863 15.7667 46.983 15.41 46.983 14.97C46.983 14.3167 47.2196 13.8067 47.693 13.44C48.1663 13.0667 48.783 12.88 49.543 12.88C50.3163 12.88 50.9396 13.0667 51.413 13.44C51.8863 13.8067 52.1396 14.32 52.173 14.98H50.323C50.3096 14.7533 50.2263 14.5767 50.073 14.45C49.9196 14.3167 49.723 14.25 49.483 14.25C49.2763 14.25 49.1096 14.3067 48.983 14.42C48.8563 14.5267 48.793 14.6833 48.793 14.89C48.793 15.1167 48.8996 15.2933 49.113 15.42C49.3263 15.5467 49.6596 15.6833 50.113 15.83C50.5663 15.9833 50.933 16.13 51.213 16.27C51.4996 16.41 51.7463 16.6133 51.953 16.88C52.1596 17.1467 52.263 17.49 52.263 17.91C52.263 18.31 52.1596 18.6733 51.953 19C51.753 19.3267 51.4596 19.5867 51.073 19.78C50.6863 19.9733 50.2296 20.07 49.703 20.07ZM55.0253 12.98V20H53.3153V12.98H55.0253ZM62.5445 20H60.8345L57.9745 15.67V20H56.2645V12.98H57.9745L60.8345 17.33V12.98H62.5445V20ZM66.3241 20.07C65.8107 20.07 65.3507 19.9867 64.9441 19.82C64.5374 19.6533 64.2107 19.4067 63.9641 19.08C63.7241 18.7533 63.5974 18.36 63.5841 17.9H65.4041C65.4307 18.16 65.5207 18.36 65.6741 18.5C65.8274 18.6333 66.0274 18.7 66.2741 18.7C66.5274 18.7 66.7274 18.6433 66.8741 18.53C67.0207 18.41 67.0941 18.2467 67.0941 18.04C67.0941 17.8667 67.0341 17.7233 66.9141 17.61C66.8007 17.4967 66.6574 17.4033 66.4841 17.33C66.3174 17.2567 66.0774 17.1733 65.7641 17.08C65.3107 16.94 64.9407 16.8 64.6541 16.66C64.3674 16.52 64.1207 16.3133 63.9141 16.04C63.7074 15.7667 63.6041 15.41 63.6041 14.97C63.6041 14.3167 63.8407 13.8067 64.3141 13.44C64.7874 13.0667 65.4041 12.88 66.1641 12.88C66.9374 12.88 67.5607 13.0667 68.0341 13.44C68.5074 13.8067 68.7607 14.32 68.7941 14.98H66.9441C66.9307 14.7533 66.8474 14.5767 66.6941 14.45C66.5407 14.3167 66.3441 14.25 66.1041 14.25C65.8974 14.25 65.7307 14.3067 65.6041 14.42C65.4774 14.5267 65.4141 14.6833 65.4141 14.89C65.4141 15.1167 65.5207 15.2933 65.7341 15.42C65.9474 15.5467 66.2807 15.6833 66.7341 15.83C67.1874 15.9833 67.5541 16.13 67.8341 16.27C68.1207 16.41 68.3674 16.6133 68.5741 16.88C68.7807 17.1467 68.8841 17.49 68.8841 17.91C68.8841 18.31 68.7807 18.6733 68.5741 19C68.3741 19.3267 68.0807 19.5867 67.6941 19.78C67.3074 19.9733 66.8507 20.07 66.3241 20.07Z" fill="#F9F9F9"/>
<rect x="4" width="74" height="4" fill="#23EDAD"/>
</svg>
