<svg width="82" height="82" viewBox="0 0 82 82" fill="none" xmlns="http://www.w3.org/2000/svg">
<path d="M2 2H80V67C80 74.1797 74.1797 80 67 80H15C7.8203 80 2 74.1797 2 67V2Z" stroke="#F9F9F9" stroke-width="4"/>
<path d="M21.57 12.98V20H19.86V15.79L18.29 20H16.91L15.33 15.78V20H13.62V12.98H15.64L17.61 17.84L19.56 12.98H21.57ZM24.5097 14.35V15.77H26.7997V17.09H24.5097V18.63H27.0997V20H22.7997V12.98H27.0997V14.35H24.5097ZM30.7498 20.07C30.2365 20.07 29.7765 19.9867 29.3698 19.82C28.9632 19.6533 28.6365 19.4067 28.3898 19.08C28.1498 18.7533 28.0232 18.36 28.0098 17.9H29.8298C29.8565 18.16 29.9465 18.36 30.0998 18.5C30.2532 18.6333 30.4532 18.7 30.6998 18.7C30.9532 18.7 31.1532 18.6433 31.2998 18.53C31.4465 18.41 31.5198 18.2467 31.5198 18.04C31.5198 17.8667 31.4598 17.7233 31.3398 17.61C31.2265 17.4967 31.0832 17.4033 30.9098 17.33C30.7432 17.2567 30.5032 17.1733 30.1898 17.08C29.7365 16.94 29.3665 16.8 29.0798 16.66C28.7932 16.52 28.5465 16.3133 28.3398 16.04C28.1332 15.7667 28.0298 15.41 28.0298 14.97C28.0298 14.3167 28.2665 13.8067 28.7398 13.44C29.2132 13.0667 29.8298 12.88 30.5898 12.88C31.3632 12.88 31.9865 13.0667 32.4598 13.44C32.9332 13.8067 33.1865 14.32 33.2198 14.98H31.3698C31.3565 14.7533 31.2732 14.5767 31.1198 14.45C30.9665 14.3167 30.7698 14.25 30.5298 14.25C30.3232 14.25 30.1565 14.3067 30.0298 14.42C29.9032 14.5267 29.8398 14.6833 29.8398 14.89C29.8398 15.1167 29.9465 15.2933 30.1598 15.42C30.3732 15.5467 30.7065 15.6833 31.1598 15.83C31.6132 15.9833 31.9798 16.13 32.2598 16.27C32.5465 16.41 32.7932 16.6133 32.9998 16.88C33.2065 17.1467 33.3098 17.49 33.3098 17.91C33.3098 18.31 33.2065 18.6733 32.9998 19C32.7998 19.3267 32.5065 19.5867 32.1198 19.78C31.7332 19.9733 31.2765 20.07 30.7498 20.07ZM42.7613 20H41.0513L38.1913 15.67V20H36.4813V12.98H38.1913L41.0513 17.33V12.98H42.7613V20ZM45.7109 14.35V15.77H48.0009V17.09H45.7109V18.63H48.3009V20H44.0009V12.98H48.3009V14.35H45.7109ZM59.071 12.98L57.241 20H55.171L54.051 15.38L52.891 20H50.821L49.041 12.98H50.871L51.881 18.09L53.131 12.98H55.011L56.211 18.09L57.231 12.98H59.071ZM62.4686 20.07C61.9553 20.07 61.4953 19.9867 61.0886 19.82C60.6819 19.6533 60.3553 19.4067 60.1086 19.08C59.8686 18.7533 59.7419 18.36 59.7286 17.9H61.5486C61.5753 18.16 61.6653 18.36 61.8186 18.5C61.9719 18.6333 62.1719 18.7 62.4186 18.7C62.6719 18.7 62.8719 18.6433 63.0186 18.53C63.1653 18.41 63.2386 18.2467 63.2386 18.04C63.2386 17.8667 63.1786 17.7233 63.0586 17.61C62.9453 17.4967 62.8019 17.4033 62.6286 17.33C62.4619 17.2567 62.2219 17.1733 61.9086 17.08C61.4553 16.94 61.0853 16.8 60.7986 16.66C60.5119 16.52 60.2653 16.3133 60.0586 16.04C59.8519 15.7667 59.7486 15.41 59.7486 14.97C59.7486 14.3167 59.9853 13.8067 60.4586 13.44C60.9319 13.0667 61.5486 12.88 62.3086 12.88C63.0819 12.88 63.7053 13.0667 64.1786 13.44C64.6519 13.8067 64.9053 14.32 64.9386 14.98H63.0886C63.0753 14.7533 62.9919 14.5767 62.8386 14.45C62.6853 14.3167 62.4886 14.25 62.2486 14.25C62.0419 14.25 61.8753 14.3067 61.7486 14.42C61.6219 14.5267 61.5586 14.6833 61.5586 14.89C61.5586 15.1167 61.6653 15.2933 61.8786 15.42C62.0919 15.5467 62.4253 15.6833 62.8786 15.83C63.3319 15.9833 63.6986 16.13 63.9786 16.27C64.2653 16.41 64.5119 16.6133 64.7186 16.88C64.9253 17.1467 65.0286 17.49 65.0286 17.91C65.0286 18.31 64.9253 18.6733 64.7186 19C64.5186 19.3267 64.2253 19.5867 63.8386 19.78C63.4519 19.9733 62.9953 20.07 62.4686 20.07Z" fill="#F9F9F9"/>
<path d="M57 34.5V66H25.5V34.5H57ZM57 30H25.5C23.025 30 21 32.025 21 34.5V66C21 68.475 23.025 70.5 25.5 70.5H57C59.475 70.5 61.5 68.475 61.5 66V34.5C61.5 32.025 59.475 30 57 30Z" fill="#F9F9F9"/>
<path d="M45.7461 61.5005H29.9961V57.0005H45.7461V61.5005ZM52.4961 52.5005H29.9961V48.0005H52.4961V52.5005ZM52.4961 43.5005H29.9961V39.0005H52.4961V43.5005Z" fill="#F9F9F9"/>
<rect x="4" width="74" height="4" fill="#23EDAD"/>
</svg>
