<svg width="82" height="82" viewBox="0 0 82 82" fill="none" xmlns="http://www.w3.org/2000/svg">
<path d="M2 2H80V67C80 74.1797 74.1797 80 67 80H15C7.8203 80 2 74.1797 2 67V2Z" stroke="#F9F9F9" stroke-width="4"/>
<path d="M62.1788 55.6027L66.9389 34.4777C67.2826 32.9524 66.1331 31.5 64.5823 31.5H25.0314L24.1084 26.949C23.8784 25.8146 22.8888 25 21.7408 25H11.4167C10.082 25 9 26.0913 9 27.4375V29.0625C9 30.4087 10.082 31.5 11.4167 31.5H18.4535L25.5271 66.3801C23.8348 67.3617 22.6944 69.2022 22.6944 71.3125C22.6944 74.4536 25.2191 77 28.3333 77C31.4476 77 33.9722 74.4536 33.9722 71.3125C33.9722 69.7206 33.323 68.2824 32.2781 67.25H53.3884C52.3436 68.2824 51.6945 69.7206 51.6945 71.3125C51.6945 74.4536 54.2191 77 57.3333 77C60.4476 77 62.9722 74.4536 62.9722 71.3125C62.9722 69.0607 61.6745 67.1147 59.7924 66.1932L60.3479 63.7277C60.6916 62.2024 59.5422 60.75 57.9914 60.75H30.9632L30.3041 57.5H59.8222C60.9506 57.5 61.9287 56.7125 62.1788 55.6027Z" fill="#F9F9F9"/>
<path d="M21.57 12.98V20H19.86V15.79L18.29 20H16.91L15.33 15.78V20H13.62V12.98H15.64L17.61 17.84L19.56 12.98H21.57ZM24.5097 14.35V15.77H26.7997V17.09H24.5097V18.63H27.0997V20H22.7997V12.98H27.0997V14.35H24.5097ZM30.7498 20.07C30.2365 20.07 29.7765 19.9867 29.3698 19.82C28.9632 19.6533 28.6365 19.4067 28.3898 19.08C28.1498 18.7533 28.0232 18.36 28.0098 17.9H29.8298C29.8565 18.16 29.9465 18.36 30.0998 18.5C30.2532 18.6333 30.4532 18.7 30.6998 18.7C30.9532 18.7 31.1532 18.6433 31.2998 18.53C31.4465 18.41 31.5198 18.2467 31.5198 18.04C31.5198 17.8667 31.4598 17.7233 31.3398 17.61C31.2265 17.4967 31.0832 17.4033 30.9098 17.33C30.7432 17.2567 30.5032 17.1733 30.1898 17.08C29.7365 16.94 29.3665 16.8 29.0798 16.66C28.7932 16.52 28.5465 16.3133 28.3398 16.04C28.1332 15.7667 28.0298 15.41 28.0298 14.97C28.0298 14.3167 28.2665 13.8067 28.7398 13.44C29.2132 13.0667 29.8298 12.88 30.5898 12.88C31.3632 12.88 31.9865 13.0667 32.4598 13.44C32.9332 13.8067 33.1865 14.32 33.2198 14.98H31.3698C31.3565 14.7533 31.2732 14.5767 31.1198 14.45C30.9665 14.3167 30.7698 14.25 30.5298 14.25C30.3232 14.25 30.1565 14.3067 30.0298 14.42C29.9032 14.5267 29.8398 14.6833 29.8398 14.89C29.8398 15.1167 29.9465 15.2933 30.1598 15.42C30.3732 15.5467 30.7065 15.6833 31.1598 15.83C31.6132 15.9833 31.9798 16.13 32.2598 16.27C32.5465 16.41 32.7932 16.6133 32.9998 16.88C33.2065 17.1467 33.3098 17.49 33.3098 17.91C33.3098 18.31 33.2065 18.6733 32.9998 19C32.7998 19.3267 32.5065 19.5867 32.1198 19.78C31.7332 19.9733 31.2765 20.07 30.7498 20.07ZM38.1913 18.68H40.4313V20H36.4813V12.98H38.1913V18.68ZM42.957 12.98V20H41.247V12.98H42.957ZM46.7362 20.07C46.2228 20.07 45.7628 19.9867 45.3562 19.82C44.9495 19.6533 44.6228 19.4067 44.3762 19.08C44.1362 18.7533 44.0095 18.36 43.9962 17.9H45.8162C45.8428 18.16 45.9328 18.36 46.0862 18.5C46.2395 18.6333 46.4395 18.7 46.6862 18.7C46.9395 18.7 47.1395 18.6433 47.2862 18.53C47.4328 18.41 47.5062 18.2467 47.5062 18.04C47.5062 17.8667 47.4462 17.7233 47.3262 17.61C47.2128 17.4967 47.0695 17.4033 46.8962 17.33C46.7295 17.2567 46.4895 17.1733 46.1762 17.08C45.7228 16.94 45.3528 16.8 45.0662 16.66C44.7795 16.52 44.5328 16.3133 44.3262 16.04C44.1195 15.7667 44.0162 15.41 44.0162 14.97C44.0162 14.3167 44.2528 13.8067 44.7262 13.44C45.1995 13.0667 45.8162 12.88 46.5762 12.88C47.3495 12.88 47.9728 13.0667 48.4462 13.44C48.9195 13.8067 49.1728 14.32 49.2062 14.98H47.3562C47.3428 14.7533 47.2595 14.5767 47.1062 14.45C46.9528 14.3167 46.7562 14.25 46.5162 14.25C46.3095 14.25 46.1428 14.3067 46.0162 14.42C45.8895 14.5267 45.8262 14.6833 45.8262 14.89C45.8262 15.1167 45.9328 15.2933 46.1462 15.42C46.3595 15.5467 46.6928 15.6833 47.1462 15.83C47.5995 15.9833 47.9662 16.13 48.2462 16.27C48.5328 16.41 48.7795 16.6133 48.9862 16.88C49.1928 17.1467 49.2962 17.49 49.2962 17.91C49.2962 18.31 49.1928 18.6733 48.9862 19C48.7862 19.3267 48.4928 19.5867 48.1062 19.78C47.7195 19.9733 47.2628 20.07 46.7362 20.07ZM55.3985 12.98V14.35H53.5385V20H51.8285V14.35H49.9685V12.98H55.3985ZM57.9667 14.35V15.77H60.2567V17.09H57.9667V18.63H60.5567V20H56.2567V12.98H60.5567V14.35H57.9667ZM64.2069 20.07C63.6935 20.07 63.2335 19.9867 62.8269 19.82C62.4202 19.6533 62.0935 19.4067 61.8469 19.08C61.6069 18.7533 61.4802 18.36 61.4669 17.9H63.2869C63.3135 18.16 63.4035 18.36 63.5569 18.5C63.7102 18.6333 63.9102 18.7 64.1569 18.7C64.4102 18.7 64.6102 18.6433 64.7569 18.53C64.9035 18.41 64.9769 18.2467 64.9769 18.04C64.9769 17.8667 64.9169 17.7233 64.7969 17.61C64.6835 17.4967 64.5402 17.4033 64.3669 17.33C64.2002 17.2567 63.9602 17.1733 63.6469 17.08C63.1935 16.94 62.8235 16.8 62.5369 16.66C62.2502 16.52 62.0035 16.3133 61.7969 16.04C61.5902 15.7667 61.4869 15.41 61.4869 14.97C61.4869 14.3167 61.7235 13.8067 62.1969 13.44C62.6702 13.0667 63.2869 12.88 64.0469 12.88C64.8202 12.88 65.4435 13.0667 65.9169 13.44C66.3902 13.8067 66.6435 14.32 66.6769 14.98H64.8269C64.8135 14.7533 64.7302 14.5767 64.5769 14.45C64.4235 14.3167 64.2269 14.25 63.9869 14.25C63.7802 14.25 63.6135 14.3067 63.4869 14.42C63.3602 14.5267 63.2969 14.6833 63.2969 14.89C63.2969 15.1167 63.4035 15.2933 63.6169 15.42C63.8302 15.5467 64.1635 15.6833 64.6169 15.83C65.0702 15.9833 65.4369 16.13 65.7169 16.27C66.0035 16.41 66.2502 16.6133 66.4569 16.88C66.6635 17.1467 66.7669 17.49 66.7669 17.91C66.7669 18.31 66.6635 18.6733 66.4569 19C66.2569 19.3267 65.9635 19.5867 65.5769 19.78C65.1902 19.9733 64.7335 20.07 64.2069 20.07Z" fill="#F9F9F9"/>
<rect x="4" width="74" height="4" fill="#23EDAD"/>
</svg>
