<svg width="82" height="82" viewBox="0 0 82 82" fill="none" xmlns="http://www.w3.org/2000/svg">
<path d="M0 0H82V67C82 75.2843 75.2843 82 67 82H15C6.71573 82 0 75.2843 0 67V0Z" fill="#F9F9F9"/>
<path d="M20.57 13.98V21H18.86V16.79L17.29 21H15.91L14.33 16.78V21H12.62V13.98H14.64L16.61 18.84L18.56 13.98H20.57ZM25.1197 21.07C24.4597 21.07 23.853 20.9167 23.2997 20.61C22.753 20.3033 22.3164 19.8767 21.9897 19.33C21.6697 18.7767 21.5097 18.1567 21.5097 17.47C21.5097 16.7833 21.6697 16.1667 21.9897 15.62C22.3164 15.0733 22.753 14.6467 23.2997 14.34C23.853 14.0333 24.4597 13.88 25.1197 13.88C25.7797 13.88 26.383 14.0333 26.9297 14.34C27.483 14.6467 27.9164 15.0733 28.2297 15.62C28.5497 16.1667 28.7097 16.7833 28.7097 17.47C28.7097 18.1567 28.5497 18.7767 28.2297 19.33C27.9097 19.8767 27.4764 20.3033 26.9297 20.61C26.383 20.9167 25.7797 21.07 25.1197 21.07ZM25.1197 19.51C25.6797 19.51 26.1264 19.3233 26.4597 18.95C26.7997 18.5767 26.9697 18.0833 26.9697 17.47C26.9697 16.85 26.7997 16.3567 26.4597 15.99C26.1264 15.6167 25.6797 15.43 25.1197 15.43C24.553 15.43 24.0997 15.6133 23.7597 15.98C23.4264 16.3467 23.2597 16.8433 23.2597 17.47C23.2597 18.09 23.4264 18.5867 23.7597 18.96C24.0997 19.3267 24.553 19.51 25.1197 19.51ZM35.941 21H34.231L31.371 16.67V21H29.661V13.98H31.371L34.231 18.33V13.98H35.941V21ZM43.8697 13.98V15.35H41.0097V16.83H43.1497V18.16H41.0097V21H39.2997V13.98H43.8697ZM48.3484 21L46.8884 18.35H46.4784V21H44.7684V13.98H47.6384C48.1918 13.98 48.6618 14.0767 49.0484 14.27C49.4418 14.4633 49.7351 14.73 49.9284 15.07C50.1218 15.4033 50.2184 15.7767 50.2184 16.19C50.2184 16.6567 50.0851 17.0733 49.8184 17.44C49.5584 17.8067 49.1718 18.0667 48.6584 18.22L50.2784 21H48.3484ZM46.4784 17.14H47.5384C47.8518 17.14 48.0851 17.0633 48.2384 16.91C48.3984 16.7567 48.4784 16.54 48.4784 16.26C48.4784 15.9933 48.3984 15.7833 48.2384 15.63C48.0851 15.4767 47.8518 15.4 47.5384 15.4H46.4784V17.14ZM53.0019 13.98V21H51.2919V13.98H53.0019ZM58.9011 16.2C58.7744 15.9667 58.5911 15.79 58.3511 15.67C58.1178 15.5433 57.8411 15.48 57.5211 15.48C56.9678 15.48 56.5244 15.6633 56.1911 16.03C55.8578 16.39 55.6911 16.8733 55.6911 17.48C55.6911 18.1267 55.8644 18.6333 56.2111 19C56.5644 19.36 57.0478 19.54 57.6611 19.54C58.0811 19.54 58.4344 19.4333 58.7211 19.22C59.0144 19.0067 59.2278 18.7 59.3611 18.3H57.1911V17.04H60.9111V18.63C60.7844 19.0567 60.5678 19.4533 60.2611 19.82C59.9611 20.1867 59.5778 20.4833 59.1111 20.71C58.6444 20.9367 58.1178 21.05 57.5311 21.05C56.8378 21.05 56.2178 20.9 55.6711 20.6C55.1311 20.2933 54.7078 19.87 54.4011 19.33C54.1011 18.79 53.9511 18.1733 53.9511 17.48C53.9511 16.7867 54.1011 16.17 54.4011 15.63C54.7078 15.0833 55.1311 14.66 55.6711 14.36C56.2111 14.0533 56.8278 13.9 57.5211 13.9C58.3611 13.9 59.0678 14.1033 59.6411 14.51C60.2211 14.9167 60.6044 15.48 60.7911 16.2H58.9011ZM65.1783 21.07C64.5183 21.07 63.9116 20.9167 63.3583 20.61C62.8116 20.3033 62.3749 19.8767 62.0483 19.33C61.7283 18.7767 61.5683 18.1567 61.5683 17.47C61.5683 16.7833 61.7283 16.1667 62.0483 15.62C62.3749 15.0733 62.8116 14.6467 63.3583 14.34C63.9116 14.0333 64.5183 13.88 65.1783 13.88C65.8383 13.88 66.4416 14.0333 66.9883 14.34C67.5416 14.6467 67.9749 15.0733 68.2883 15.62C68.6083 16.1667 68.7683 16.7833 68.7683 17.47C68.7683 18.1567 68.6083 18.7767 68.2883 19.33C67.9683 19.8767 67.5349 20.3033 66.9883 20.61C66.4416 20.9167 65.8383 21.07 65.1783 21.07ZM65.1783 19.51C65.7383 19.51 66.1849 19.3233 66.5183 18.95C66.8583 18.5767 67.0283 18.0833 67.0283 17.47C67.0283 16.85 66.8583 16.3567 66.5183 15.99C66.1849 15.6167 65.7383 15.43 65.1783 15.43C64.6116 15.43 64.1583 15.6133 63.8183 15.98C63.4849 16.3467 63.3183 16.8433 63.3183 17.47C63.3183 18.09 63.4849 18.5867 63.8183 18.96C64.1583 19.3267 64.6116 19.51 65.1783 19.51Z" fill="#25ECAF"/>
<path d="M28.0846 25.1665H53.918C55.2883 25.1665 56.6024 25.7108 57.5714 26.6798C58.5403 27.6487 59.0846 28.9629 59.0846 30.3332V43.2498H22.918V30.3332C22.918 28.9629 23.4623 27.6487 24.4313 26.6798C25.4002 25.7108 26.7144 25.1665 28.0846 25.1665ZM59.0846 69.0832C59.0846 70.4535 58.5403 71.7676 57.5714 72.7366C56.6024 73.7055 55.2883 74.2498 53.918 74.2498V76.8332H48.7513V74.2498H33.2513V76.8332H28.0846V74.2498C26.7144 74.2498 25.4002 73.7055 24.4313 72.7366C23.4623 71.7676 22.918 70.4535 22.918 69.0832V45.8332H59.0846V69.0832ZM30.668 32.9165V38.0832H35.8346V32.9165H30.668ZM30.668 50.9998V58.7498H35.8346V50.9998H30.668Z" fill="#2DE8B4"/>
</svg>
