<svg width="82" height="82" viewBox="0 0 82 82" fill="none" xmlns="http://www.w3.org/2000/svg">
<path d="M2 2H80V67C80 74.1797 74.1797 80 67 80H15C7.8203 80 2 74.1797 2 67V2Z" stroke="#F9F9F9" stroke-width="4"/>
<path d="M21.57 12.98V20H19.86V15.79L18.29 20H16.91L15.33 15.78V20H13.62V12.98H15.64L17.61 17.84L19.56 12.98H21.57ZM26.1197 20.07C25.4597 20.07 24.853 19.9167 24.2997 19.61C23.753 19.3033 23.3164 18.8767 22.9897 18.33C22.6697 17.7767 22.5097 17.1567 22.5097 16.47C22.5097 15.7833 22.6697 15.1667 22.9897 14.62C23.3164 14.0733 23.753 13.6467 24.2997 13.34C24.853 13.0333 25.4597 12.88 26.1197 12.88C26.7797 12.88 27.383 13.0333 27.9297 13.34C28.483 13.6467 28.9164 14.0733 29.2297 14.62C29.5497 15.1667 29.7097 15.7833 29.7097 16.47C29.7097 17.1567 29.5497 17.7767 29.2297 18.33C28.9097 18.8767 28.4764 19.3033 27.9297 19.61C27.383 19.9167 26.7797 20.07 26.1197 20.07ZM26.1197 18.51C26.6797 18.51 27.1264 18.3233 27.4597 17.95C27.7997 17.5767 27.9697 17.0833 27.9697 16.47C27.9697 15.85 27.7997 15.3567 27.4597 14.99C27.1264 14.6167 26.6797 14.43 26.1197 14.43C25.553 14.43 25.0997 14.6133 24.7597 14.98C24.4264 15.3467 24.2597 15.8433 24.2597 16.47C24.2597 17.09 24.4264 17.5867 24.7597 17.96C25.0997 18.3267 25.553 18.51 26.1197 18.51ZM36.941 20H35.231L32.371 15.67V20H30.661V12.98H32.371L35.231 17.33V12.98H36.941V20ZM42.8397 20.07C42.3264 20.07 41.8664 19.9867 41.4597 19.82C41.053 19.6533 40.7264 19.4067 40.4797 19.08C40.2397 18.7533 40.113 18.36 40.0997 17.9H41.9197C41.9464 18.16 42.0364 18.36 42.1897 18.5C42.343 18.6333 42.543 18.7 42.7897 18.7C43.043 18.7 43.243 18.6433 43.3897 18.53C43.5364 18.41 43.6097 18.2467 43.6097 18.04C43.6097 17.8667 43.5497 17.7233 43.4297 17.61C43.3164 17.4967 43.173 17.4033 42.9997 17.33C42.833 17.2567 42.593 17.1733 42.2797 17.08C41.8264 16.94 41.4564 16.8 41.1697 16.66C40.883 16.52 40.6364 16.3133 40.4297 16.04C40.223 15.7667 40.1197 15.41 40.1197 14.97C40.1197 14.3167 40.3564 13.8067 40.8297 13.44C41.303 13.0667 41.9197 12.88 42.6797 12.88C43.453 12.88 44.0764 13.0667 44.5497 13.44C45.023 13.8067 45.2764 14.32 45.3097 14.98H43.4597C43.4464 14.7533 43.363 14.5767 43.2097 14.45C43.0564 14.3167 42.8597 14.25 42.6197 14.25C42.413 14.25 42.2464 14.3067 42.1197 14.42C41.993 14.5267 41.9297 14.6833 41.9297 14.89C41.9297 15.1167 42.0364 15.2933 42.2497 15.42C42.463 15.5467 42.7964 15.6833 43.2497 15.83C43.703 15.9833 44.0697 16.13 44.3497 16.27C44.6364 16.41 44.883 16.6133 45.0897 16.88C45.2964 17.1467 45.3997 17.49 45.3997 17.91C45.3997 18.31 45.2964 18.6733 45.0897 19C44.8897 19.3267 44.5964 19.5867 44.2097 19.78C43.823 19.9733 43.3664 20.07 42.8397 20.07ZM48.132 12.98V17.18C48.132 17.6 48.2354 17.9233 48.442 18.15C48.6487 18.3767 48.952 18.49 49.352 18.49C49.752 18.49 50.0587 18.3767 50.272 18.15C50.4854 17.9233 50.592 17.6 50.592 17.18V12.98H52.302V17.17C52.302 17.7967 52.1687 18.3267 51.902 18.76C51.6354 19.1933 51.2754 19.52 50.822 19.74C50.3754 19.96 49.8754 20.07 49.322 20.07C48.7687 20.07 48.272 19.9633 47.832 19.75C47.3987 19.53 47.0554 19.2033 46.802 18.77C46.5487 18.33 46.422 17.7967 46.422 17.17V12.98H48.132ZM55.2128 12.98V20H53.5028V12.98H55.2128ZM63.042 12.98L60.552 20H58.412L55.922 12.98H57.742L59.482 18.28L61.232 12.98H63.042ZM65.4667 12.98V20H63.7567V12.98H65.4667Z" fill="#F9F9F9"/>
<path d="M50.668 29.4263V65.0513C50.668 69.0175 53.3755 71.25 56.3442 71.25C59.0517 71.25 62.0205 69.3738 62.0205 65.0513V29.6875C62.0205 26.03 59.313 23.75 56.3442 23.75C53.3755 23.75 50.668 26.2675 50.668 29.4263V29.4263ZM35.8242 47.5V65.0513C35.8242 69.0413 38.5792 71.25 41.5005 71.25C44.208 71.25 47.1767 69.3738 47.1767 65.0513V47.7613C47.1767 44.1038 44.4692 41.8238 41.5005 41.8238C38.5317 41.8238 35.8242 44.3413 35.8242 47.5ZM26.6567 59.9213C29.7917 59.9213 32.333 62.4625 32.333 65.5738C32.333 67.0792 31.7349 68.523 30.6704 69.5875C29.6059 70.652 28.1622 71.25 26.6567 71.25C25.1513 71.25 23.7075 70.652 22.643 69.5875C21.5785 68.523 20.9805 67.0792 20.9805 65.5738C20.9805 62.4625 23.5217 59.9213 26.6567 59.9213Z" fill="#F9F9F9"/>
<rect x="4" width="74" height="4" fill="#23EDAD"/>
</svg>
