<svg width="82" height="82" viewBox="0 0 82 82" fill="none" xmlns="http://www.w3.org/2000/svg">
<path d="M0 0H82V67C82 75.2843 75.2843 82 67 82H15C6.71573 82 0 75.2843 0 67V0Z" fill="#F9F9F9"/>
<path d="M21.57 12.98V20H19.86V15.79L18.29 20H16.91L15.33 15.78V20H13.62V12.98H15.64L17.61 17.84L19.56 12.98H21.57ZM28.8197 12.98L26.3897 17.68V20H24.6797V17.68L22.2497 12.98H24.1897L25.5497 15.92L26.8997 12.98H28.8197ZM35.8778 16.4C36.2845 16.4867 36.6111 16.69 36.8578 17.01C37.1045 17.3233 37.2278 17.6833 37.2278 18.09C37.2278 18.6767 37.0211 19.1433 36.6078 19.49C36.2011 19.83 35.6311 20 34.8978 20H31.6278V12.98H34.7878C35.5011 12.98 36.0578 13.1433 36.4578 13.47C36.8645 13.7967 37.0678 14.24 37.0678 14.8C37.0678 15.2133 36.9578 15.5567 36.7378 15.83C36.5245 16.1033 36.2378 16.2933 35.8778 16.4ZM33.3378 15.82H34.4578C34.7378 15.82 34.9511 15.76 35.0978 15.64C35.2511 15.5133 35.3278 15.33 35.3278 15.09C35.3278 14.85 35.2511 14.6667 35.0978 14.54C34.9511 14.4133 34.7378 14.35 34.4578 14.35H33.3378V15.82ZM34.5978 18.62C34.8845 18.62 35.1045 18.5567 35.2578 18.43C35.4178 18.2967 35.4978 18.1067 35.4978 17.86C35.4978 17.6133 35.4145 17.42 35.2478 17.28C35.0878 17.14 34.8645 17.07 34.5778 17.07H33.3378V18.62H34.5978ZM42.5896 18.76H39.9696L39.5496 20H37.7596L40.2996 12.98H42.2796L44.8196 20H43.0096L42.5896 18.76ZM42.1496 17.44L41.2796 14.87L40.4196 17.44H42.1496ZM50.6427 12.98V14.35H48.7827V20H47.0727V14.35H45.2127V12.98H50.6427ZM51.2109 16.48C51.2109 15.7867 51.3609 15.17 51.6609 14.63C51.9609 14.0833 52.3775 13.66 52.9109 13.36C53.4509 13.0533 54.0609 12.9 54.7409 12.9C55.5742 12.9 56.2875 13.12 56.8809 13.56C57.4742 14 57.8709 14.6 58.0709 15.36H56.1909C56.0509 15.0667 55.8509 14.8433 55.5909 14.69C55.3375 14.5367 55.0475 14.46 54.7209 14.46C54.1942 14.46 53.7675 14.6433 53.4409 15.01C53.1142 15.3767 52.9509 15.8667 52.9509 16.48C52.9509 17.0933 53.1142 17.5833 53.4409 17.95C53.7675 18.3167 54.1942 18.5 54.7209 18.5C55.0475 18.5 55.3375 18.4233 55.5909 18.27C55.8509 18.1167 56.0509 17.8933 56.1909 17.6H58.0709C57.8709 18.36 57.4742 18.96 56.8809 19.4C56.2875 19.8333 55.5742 20.05 54.7409 20.05C54.0609 20.05 53.4509 19.9 52.9109 19.6C52.3775 19.2933 51.9609 18.87 51.6609 18.33C51.3609 17.79 51.2109 17.1733 51.2109 16.48ZM65.198 12.98V20H63.488V17.11H60.828V20H59.118V12.98H60.828V15.73H63.488V12.98H65.198Z" fill="#26EBAF"/>
<path d="M41.5 31.4025L24 45.4025V65H36.5V55H46.5V65H59V46.605C59.0001 46.2301 58.916 45.8599 58.7537 45.522C58.5914 45.184 58.3552 44.8868 58.0625 44.6525L41.5 31.4025ZM41.5 25L61.185 40.75C62.0628 41.4522 62.7715 42.3427 63.2588 43.3558C63.7461 44.3688 63.9994 45.4784 64 46.6025V65C64 66.3261 63.4732 67.5978 62.5355 68.5355C61.5978 69.4732 60.3261 70 59 70H24C22.6739 70 21.4021 69.4732 20.4645 68.5355C19.5268 67.5978 19 66.3261 19 65V45.4025C19.0001 44.6531 19.1686 43.9133 19.4932 43.2378C19.8177 42.5623 20.29 41.9684 20.875 41.5L41.5 25Z" fill="#2DE8B3"/>
</svg>
