<svg width="32" height="38" viewBox="0 0 32 38" fill="none" xmlns="http://www.w3.org/2000/svg">
<path d="M23.0768 5.04866V32.5487C23.0768 35.6103 25.1668 37.3337 27.4585 37.3337C29.5485 37.3337 31.8402 35.8853 31.8402 32.5487V5.25033C31.8402 2.42699 29.7502 0.666992 27.4585 0.666992C25.1668 0.666992 23.0768 2.61033 23.0768 5.04866ZM11.6185 19.0003V32.5487C11.6185 35.6287 13.7452 37.3337 16.0002 37.3337C18.0902 37.3337 20.3818 35.8853 20.3818 32.5487V19.202C20.3818 16.3787 18.2918 14.6187 16.0002 14.6187C13.7085 14.6187 11.6185 16.562 11.6185 19.0003ZM4.54182 28.5887C6.96182 28.5887 8.92349 30.5503 8.92349 32.952C8.92349 34.1141 8.46185 35.2286 7.64013 36.0503C6.81841 36.872 5.70391 37.3337 4.54182 37.3337C3.37973 37.3337 2.26524 36.872 1.44352 36.0503C0.621795 35.2286 0.160156 34.1141 0.160156 32.952C0.160156 30.5503 2.12182 28.5887 4.54182 28.5887Z" fill="#F9F9F9"/>
</svg>
