<svg width="121" height="83" viewBox="0 0 121 83" fill="none" xmlns="http://www.w3.org/2000/svg">
<path d="M28.3948 35.364V48H25.3168V40.422L22.4908 48H20.0068L17.1628 40.404V48H14.0848V35.364H17.7207L21.2668 44.112L24.7768 35.364H28.3948ZM41.4442 35.364L37.0702 43.824V48H33.9922V43.824L29.6182 35.364H33.1102L35.5582 40.656L37.9882 35.364H41.4442ZM54.1488 41.52C54.8808 41.676 55.4688 42.042 55.9128 42.618C56.3568 43.182 56.5788 43.83 56.5788 44.562C56.5788 45.618 56.2068 46.458 55.4628 47.082C54.7308 47.694 53.7048 48 52.3848 48H46.4988V35.364H52.1868C53.4708 35.364 54.4728 35.658 55.1928 36.246C55.9248 36.834 56.2908 37.632 56.2908 38.64C56.2908 39.384 56.0928 40.002 55.6968 40.494C55.3128 40.986 54.7968 41.328 54.1488 41.52ZM49.5768 40.476H51.5928C52.0968 40.476 52.4808 40.368 52.7448 40.152C53.0208 39.924 53.1588 39.594 53.1588 39.162C53.1588 38.73 53.0208 38.4 52.7448 38.172C52.4808 37.944 52.0968 37.83 51.5928 37.83H49.5768V40.476ZM51.8448 45.516C52.3608 45.516 52.7568 45.402 53.0328 45.174C53.3208 44.934 53.4648 44.592 53.4648 44.148C53.4648 43.704 53.3148 43.356 53.0148 43.104C52.7268 42.852 52.3248 42.726 51.8088 42.726H49.5768V45.516H51.8448ZM66.23 45.768H61.514L60.758 48H57.536L62.108 35.364H65.672L70.244 48H66.986L66.23 45.768ZM65.438 43.392L63.872 38.766L62.324 43.392H65.438ZM80.7255 35.364V37.83H77.3775V48H74.2995V37.83H70.9515V35.364H80.7255ZM81.7483 41.664C81.7483 40.416 82.0183 39.306 82.5583 38.334C83.0983 37.35 83.8483 36.588 84.8083 36.048C85.7803 35.496 86.8783 35.22 88.1023 35.22C89.6023 35.22 90.8863 35.616 91.9543 36.408C93.0223 37.2 93.7363 38.28 94.0963 39.648H90.7123C90.4603 39.12 90.1003 38.718 89.6323 38.442C89.1763 38.166 88.6543 38.028 88.0663 38.028C87.1183 38.028 86.3503 38.358 85.7623 39.018C85.1743 39.678 84.8803 40.56 84.8803 41.664C84.8803 42.768 85.1743 43.65 85.7623 44.31C86.3503 44.97 87.1183 45.3 88.0663 45.3C88.6543 45.3 89.1763 45.162 89.6323 44.886C90.1003 44.61 90.4603 44.208 90.7123 43.68H94.0963C93.7363 45.048 93.0223 46.128 91.9543 46.92C90.8863 47.7 89.6023 48.09 88.1023 48.09C86.8783 48.09 85.7803 47.82 84.8083 47.28C83.8483 46.728 83.0983 45.966 82.5583 44.994C82.0183 44.022 81.7483 42.912 81.7483 41.664ZM106.925 35.364V48H103.847V42.798H99.0592V48H95.9812V35.364H99.0592V40.314H103.847V35.364H106.925Z" fill="#2AEAB1"/>
</svg>
